<svg width="30" height="48" viewBox="0 0 30 48" fill="none" xmlns="http://www.w3.org/2000/svg">
<path d="M5.99953 47.5C5.84385 47.5008 5.68889 47.4789 5.53953 47.435C5.33124 47.3737 5.13713 47.2718 4.96842 47.1351C4.79971 46.9984 4.65972 46.8297 4.55653 46.6387C4.45334 46.4476 4.38899 46.2381 4.3672 46.022C4.3454 45.806 4.36658 45.5878 4.42953 45.38L8.96453 29.5H2.15953C1.95707 29.5072 1.7552 29.4742 1.56555 29.4029C1.37589 29.3317 1.20222 29.2237 1.05453 29.085C0.730143 28.7998 0.531768 28.3979 0.502727 27.967C0.473685 27.536 0.616337 27.1111 0.899531 26.785L22.0895 1.09499C22.289 0.854206 22.5531 0.675445 22.8507 0.579772C23.1484 0.484099 23.4672 0.4755 23.7695 0.55499C23.9775 0.604518 24.1733 0.695609 24.3452 0.822781C24.517 0.949953 24.6614 1.11058 24.7695 1.29499C24.9928 1.66564 25.0611 2.10936 24.9595 2.52999L20.9195 20.435H27.8595C28.1733 20.4368 28.4799 20.5283 28.7434 20.6986C29.0069 20.869 29.2161 21.1112 29.3464 21.3966C29.4768 21.6819 29.5228 21.9987 29.479 22.3093C29.4353 22.62 29.3036 22.9117 29.0995 23.15V23.175L7.22953 46.95C7.07598 47.1246 6.88666 47.264 6.67442 47.3589C6.46219 47.4538 6.23201 47.5019 5.99953 47.5ZM10.2945 27.5C10.4492 27.5002 10.6017 27.5363 10.7401 27.6055C10.8785 27.6746 10.9989 27.7749 11.092 27.8985C11.185 28.0221 11.2481 28.1655 11.2763 28.3176C11.3045 28.4697 11.2971 28.6263 11.2545 28.775L6.76453 44.5L27.0445 22.435H19.6695C19.5175 22.4387 19.3666 22.4077 19.2283 22.3443C19.09 22.281 18.968 22.1869 18.8716 22.0692C18.7751 21.9516 18.7068 21.8135 18.6718 21.6655C18.6368 21.5174 18.636 21.3634 18.6695 21.215L22.6695 3.51499L2.89953 27.5H10.2945Z" fill="black"/>
</svg>
