<svg width="18" height="13" viewBox="0 0 18 13" fill="none" xmlns="http://www.w3.org/2000/svg">
<path d="M15.9741 10.115L17.4303 3.61344C17.4683 3.44344 17.4676 3.26707 17.4283 3.09737C17.389 2.92766 17.3121 2.76895 17.2033 2.63296C17.0944 2.49697 16.9564 2.38717 16.7994 2.31169C16.6424 2.2362 16.4705 2.19695 16.2963 2.19684H4.94366L4.72046 1.10424C4.70363 1.0217 4.65839 0.947672 4.59261 0.895049C4.52683 0.842426 4.44468 0.814537 4.36046 0.816235H0.899063C0.803585 0.816235 0.712017 0.854164 0.644504 0.921677C0.576991 0.98919 0.539063 1.08076 0.539062 1.17624C0.539063 1.27171 0.576991 1.36328 0.644504 1.43079C0.712017 1.49831 0.803585 1.53624 0.899063 1.53624H4.07426L4.29746 2.62884L5.82746 10.1078L6.17126 11.78C6.18809 11.8626 6.23334 11.9366 6.29911 11.9892C6.36489 12.0418 6.44704 12.0697 6.53126 12.068H16.5807C16.6761 12.068 16.7677 12.0301 16.8352 11.9626C16.9027 11.8951 16.9407 11.8035 16.9407 11.708C16.9407 11.6126 16.9027 11.521 16.8352 11.4535C16.7677 11.386 16.6761 11.348 16.5807 11.348H6.81746L6.62126 10.3922H15.6213C15.7028 10.3928 15.782 10.3657 15.8461 10.3153C15.9102 10.265 15.9553 10.1944 15.9741 10.115ZM6.47906 9.67584L5.09126 2.91684H16.2963C16.3628 2.91649 16.4285 2.93121 16.4885 2.95987C16.5486 2.98853 16.6013 3.0304 16.6429 3.08234C16.6844 3.13428 16.7137 3.19495 16.7285 3.2598C16.7433 3.32466 16.7432 3.39202 16.7283 3.45684L15.3333 9.67584H6.47906Z" fill="black"/>
</svg>
