<svg width="18" height="18" viewBox="0 0 18 18" fill="none" xmlns="http://www.w3.org/2000/svg">
<path d="M17.4591 8.99996C17.4591 7.60321 17.1133 6.22818 16.4525 4.99762C15.7917 3.76706 14.8365 2.71925 13.6722 1.94772C12.5079 1.17618 11.1706 0.704931 9.77984 0.576025C8.38905 0.447119 6.98798 0.66457 5.70169 1.20897C4.4154 1.75337 3.28391 2.60777 2.40822 3.69593C1.53253 4.78408 0.939877 6.07212 0.683172 7.44508C0.426466 8.81803 0.51369 10.2332 0.937059 11.5642C1.36043 12.8953 2.10677 14.1008 3.10946 15.0732C4.6775 16.5955 6.7745 17.4508 8.95993 17.4596C11.1454 17.4683 13.2491 16.6297 14.8293 15.12C14.8639 15.0972 14.8944 15.0685 14.9193 15.0354C15.7234 14.2493 16.3623 13.3105 16.7985 12.2741C17.2346 11.2376 17.4592 10.1244 17.4591 8.99996ZM8.99907 1.25996C10.4959 1.26109 11.9602 1.6962 13.2148 2.5126C14.4694 3.329 15.4603 4.49165 16.0676 5.85973C16.6749 7.22782 16.8724 8.74264 16.6363 10.2207C16.4003 11.6988 15.7407 13.0767 14.7375 14.1876C14.3392 13.3984 13.7817 12.7003 13.1001 12.1374C12.4185 11.5745 11.6277 11.1589 10.7775 10.917C11.4825 10.5226 12.0368 9.90552 12.3536 9.16237C12.6703 8.41923 12.7316 7.59201 12.5278 6.81029C12.3241 6.02858 11.8668 5.33654 11.2275 4.84259C10.5883 4.34863 9.8033 4.08067 8.99547 4.08067C8.18763 4.08067 7.40262 4.34863 6.7634 4.84259C6.12418 5.33654 5.66687 6.02858 5.4631 6.81029C5.25933 7.59201 5.32062 8.41923 5.63737 9.16237C5.95412 9.90552 6.50843 10.5226 7.21347 10.917C6.36299 11.1589 5.57196 11.5747 4.89035 12.1379C4.20874 12.7012 3.65137 13.3997 3.25346 14.1894C1.96277 12.77 1.25114 10.9184 1.25906 8.99996C1.25906 6.94718 2.07453 4.97848 3.52606 3.52695C4.97759 2.07542 6.94629 1.25996 8.99907 1.25996ZM8.99907 10.665C8.41926 10.665 7.85248 10.493 7.37046 10.1707C6.88844 9.84848 6.51285 9.3905 6.29122 8.85472C6.06958 8.31895 6.01186 7.72946 6.12537 7.16088C6.23888 6.59229 6.51851 6.07015 6.92888 5.66054C7.33924 5.25093 7.86189 4.97227 8.43069 4.85981C8.99949 4.74735 9.58886 4.80615 10.1242 5.02877C10.6596 5.2514 11.1169 5.62783 11.4382 6.11045C11.7596 6.59306 11.9305 7.16015 11.9295 7.73996C11.9276 8.51607 11.618 9.25976 11.0687 9.80805C10.5194 10.3563 9.77518 10.6645 8.99907 10.665ZM3.80066 14.7312C4.25472 13.7334 4.9863 12.8875 5.90808 12.2942C6.82985 11.701 7.90288 11.3855 8.99907 11.3855C10.0952 11.3855 11.1683 11.701 12.0901 12.2942C13.0118 12.8875 13.7434 13.7334 14.1975 14.7312C12.775 16.0245 10.9216 16.7411 8.99907 16.7411C7.07657 16.7411 5.22311 16.0245 3.80066 14.7312Z" fill="black"/>
</svg>
